<svg width="183" height="122" viewBox="0 0 183 122" fill="none" xmlns="http://www.w3.org/2000/svg">
<rect y="0.648438" width="112.687" height="20.9542" fill="black"/>
<rect y="25.3281" width="183" height="20.9542" fill="black"/>
<rect y="74.2227" width="121.069" height="20.9542" fill="black"/>
<rect y="50.4727" width="112.687" height="20.9542" fill="black"/>
<rect x="53.0845" y="98.4375" width="59.6031" height="20.9542" fill="black"/>
<path d="M7.71182 18.6484V5.23774H8.97839V17.5681H16.168V18.6484H7.71182ZM24.4317 9.00018H25.5492V18.6484H24.4317V17.3074C24.2827 17.4812 24.115 17.6613 23.9288 17.8475C23.7425 18.0338 23.5252 18.2076 23.2769 18.369C23.0409 18.5181 22.7616 18.6422 22.4387 18.7416C22.1159 18.8533 21.7433 18.9092 21.3211 18.9092C20.6754 18.9092 20.1353 18.8223 19.7007 18.6484C19.2661 18.4622 18.9122 18.2076 18.639 17.8848C18.3782 17.5619 18.1858 17.1894 18.0616 16.7672C17.9498 16.3326 17.894 15.8608 17.894 15.3516V9.00018H19.0115V15.333C19.0115 16.165 19.204 16.8045 19.5889 17.2515C19.9739 17.6861 20.6072 17.9034 21.4888 17.9034C21.9482 17.9034 22.358 17.8165 22.7181 17.6426C23.0906 17.4564 23.401 17.2018 23.6494 16.879C23.8977 16.5561 24.0902 16.1712 24.2268 15.7242C24.3634 15.2771 24.4317 14.7867 24.4317 14.2527V9.00018ZM31.5964 14.4762L28.5976 18.6484H27.238L30.9445 13.6567L27.536 9.00018H28.9143L31.5778 12.8371L34.3158 9.00018H35.7314L32.2483 13.6567L35.8618 18.6484H34.5207L31.5964 14.4762ZM44.5415 13.1538C44.5415 12.6819 44.4732 12.2411 44.3366 11.8313C44.2124 11.4091 44.02 11.049 43.7592 10.751C43.5108 10.4406 43.1942 10.1985 42.8093 10.0246C42.4243 9.83835 41.9835 9.74522 41.4868 9.74522C40.9901 9.74522 40.5493 9.83835 40.1644 10.0246C39.7919 10.2109 39.469 10.4592 39.1958 10.7697C38.9351 11.0801 38.724 11.4402 38.5625 11.85C38.4011 12.2597 38.2956 12.6943 38.2459 13.1538H44.5415ZM38.2459 14.0851C38.2459 14.6066 38.3142 15.1033 38.4508 15.5752C38.5874 16.0346 38.7861 16.4382 39.0468 16.7858C39.32 17.1211 39.6615 17.3943 40.0712 17.6054C40.481 17.8041 40.9529 17.9034 41.4868 17.9034C42.2194 17.9034 42.8465 17.7109 43.368 17.326C43.8896 16.9411 44.2373 16.3947 44.4111 15.6869H45.659C45.5224 16.1463 45.3424 16.5747 45.1189 16.9721C44.8954 17.357 44.616 17.6985 44.2807 17.9965C43.9454 18.2821 43.5481 18.5056 43.0887 18.6671C42.6292 18.8285 42.0953 18.9092 41.4868 18.9092C40.7169 18.9092 40.0526 18.7788 39.4938 18.5181C38.9351 18.2573 38.4756 17.9034 38.1155 17.4564C37.7554 16.9969 37.4884 16.463 37.3146 15.8545C37.1408 15.2337 37.0538 14.5693 37.0538 13.8616C37.0538 13.1538 37.1532 12.4894 37.3519 11.8686C37.5629 11.2477 37.8548 10.7076 38.2273 10.2481C38.6122 9.77627 39.0779 9.40996 39.6242 9.14919C40.1706 8.87601 40.7914 8.73942 41.4868 8.73942C42.8155 8.73942 43.8585 9.19886 44.616 10.1177C45.3734 11.0242 45.746 12.3467 45.7335 14.0851H38.2459ZM48.8751 18.6484H47.7575V9.00018H48.8751V10.453H48.9123C49.1979 9.89423 49.6077 9.47204 50.1416 9.18644C50.6756 8.88843 51.2592 8.73942 51.8925 8.73942C52.3395 8.73942 52.7182 8.78909 53.0287 8.88843C53.3391 8.98777 53.5999 9.12436 53.811 9.2982C54.0345 9.45962 54.2145 9.65209 54.3511 9.8756C54.5001 10.0991 54.6243 10.3413 54.7236 10.602C55.0465 9.96873 55.4749 9.50309 56.0088 9.20507C56.5552 8.89464 57.176 8.73942 57.8714 8.73942C58.5295 8.73942 59.0511 8.85118 59.436 9.07469C59.8334 9.28578 60.1376 9.57138 60.3487 9.93148C60.5598 10.2792 60.6964 10.6827 60.7584 11.1422C60.8329 11.6016 60.8702 12.0735 60.8702 12.5577V18.6484H59.7526V11.9803C59.7526 11.285 59.6036 10.7386 59.3056 10.3413C59.02 9.9439 58.4799 9.74522 57.6852 9.74522C57.2754 9.74522 56.878 9.83835 56.4931 10.0246C56.1206 10.1985 55.7915 10.4716 55.5059 10.8442C55.3817 11.0056 55.2762 11.198 55.1893 11.4216C55.1148 11.6327 55.0527 11.8562 55.003 12.0921C54.9533 12.328 54.9161 12.564 54.8913 12.7999C54.8788 13.0358 54.8726 13.2531 54.8726 13.4518V18.6484H53.7551V11.9803C53.7551 11.285 53.6061 10.7386 53.3081 10.3413C53.0225 9.9439 52.4823 9.74522 51.6876 9.74522C51.2778 9.74522 50.8805 9.83835 50.4955 10.0246C50.123 10.1985 49.794 10.4716 49.5084 10.8442C49.3842 11.0056 49.2786 11.198 49.1917 11.4216C49.1172 11.6327 49.0551 11.8562 49.0055 12.0921C48.9558 12.328 48.9185 12.564 48.8937 12.7999C48.8813 13.0358 48.8751 13.2531 48.8751 13.4518V18.6484ZM64.67 13.7871C64.67 14.3707 64.7383 14.917 64.8749 15.4261C65.0239 15.9228 65.235 16.3574 65.5082 16.73C65.7814 17.0901 66.1229 17.3757 66.5326 17.5868C66.9424 17.7979 67.4081 17.9034 67.9296 17.9034C68.4014 17.9034 68.8361 17.8227 69.2334 17.6613C69.6308 17.4874 69.9784 17.2391 70.2765 16.9162C70.5745 16.5934 70.8042 16.2022 70.9656 15.7428C71.1395 15.2709 71.2264 14.7308 71.2264 14.1223C71.2512 13.5139 71.2015 12.9489 71.0774 12.4274C70.9532 11.8934 70.7545 11.4278 70.4813 11.0304C70.2082 10.6331 69.8543 10.3226 69.4197 10.0991C68.9975 9.86319 68.5008 9.74522 67.9296 9.74522C67.4205 9.74522 66.961 9.85698 66.5513 10.0805C66.1539 10.2916 65.8124 10.5834 65.5268 10.9559C65.2537 11.316 65.0426 11.7444 64.8936 12.2411C64.7445 12.7254 64.67 13.2407 64.67 13.7871ZM64.67 18.6484H63.5525V5.23774H64.67V10.5461C65.0301 9.95011 65.5206 9.50309 66.1415 9.20507C66.7748 8.89464 67.4329 8.73942 68.1158 8.73942C68.8485 8.73942 69.4818 8.88222 70.0157 9.16782C70.5621 9.441 71.0091 9.81352 71.3568 10.2854C71.7169 10.7448 71.9838 11.285 72.1577 11.9058C72.3315 12.5267 72.4184 13.1724 72.4184 13.8429C72.4184 14.5507 72.3377 15.2151 72.1763 15.8359C72.0149 16.4568 71.7541 16.9969 71.394 17.4564C71.0463 17.9034 70.5993 18.2573 70.0529 18.5181C69.5066 18.7788 68.8423 18.9092 68.06 18.9092C67.7495 18.9092 67.4329 18.8657 67.11 18.7788C66.7872 18.6919 66.4706 18.5677 66.1601 18.4063C65.8621 18.2449 65.5827 18.0462 65.322 17.8103C65.0736 17.5619 64.8687 17.2763 64.7073 16.9535H64.67V18.6484ZM78.6456 18.9092C78.0248 18.8968 77.4412 18.785 76.8948 18.5739C76.3608 18.3628 75.889 18.0462 75.4792 17.624C75.0819 17.2018 74.7652 16.6741 74.5293 16.0408C74.2934 15.4075 74.1754 14.6687 74.1754 13.8243C74.1754 13.1165 74.2685 12.4584 74.4548 11.85C74.641 11.2291 74.9204 10.6889 75.293 10.2295C75.6655 9.77006 76.1311 9.40996 76.6899 9.14919C77.2487 8.87601 77.9006 8.73942 78.6456 8.73942C79.4031 8.73942 80.0612 8.87601 80.62 9.14919C81.1788 9.40996 81.6444 9.77006 82.0169 10.2295C82.3895 10.6765 82.6626 11.2105 82.8365 11.8313C83.0227 12.4522 83.1159 13.1165 83.1159 13.8243C83.1159 14.5942 83.0103 15.2896 82.7992 15.9104C82.5881 16.5313 82.2839 17.0652 81.8866 17.5123C81.5016 17.9593 81.0298 18.307 80.471 18.5553C79.9246 18.7912 79.3162 18.9092 78.6456 18.9092ZM81.9238 13.8243C81.9238 13.2531 81.8617 12.7192 81.7375 12.2225C81.6134 11.7258 81.4209 11.2974 81.1601 10.9373C80.8994 10.5648 80.5641 10.273 80.1543 10.0619C79.7446 9.85077 79.2417 9.74522 78.6456 9.74522C78.062 9.74522 77.5591 9.86319 77.1369 10.0991C76.7272 10.3226 76.3919 10.6269 76.1311 11.0118C75.8704 11.3843 75.6779 11.8189 75.5537 12.3156C75.4295 12.7999 75.3675 13.3028 75.3675 13.8243C75.3675 14.4203 75.4358 14.9729 75.5723 15.482C75.7214 15.9787 75.9325 16.4071 76.2056 16.7672C76.4788 17.1273 76.8203 17.4067 77.2301 17.6054C77.6398 17.8041 78.1117 17.9034 78.6456 17.9034C79.2292 17.9034 79.7259 17.7916 80.1357 17.5681C80.5579 17.3322 80.8994 17.0218 81.1601 16.6368C81.4209 16.2519 81.6134 15.8173 81.7375 15.333C81.8617 14.8487 81.9238 14.3458 81.9238 13.8243ZM91.6962 9.00018H92.8137V18.6484H91.6962V17.3074C91.5472 17.4812 91.3795 17.6613 91.1933 17.8475C91.007 18.0338 90.7897 18.2076 90.5414 18.369C90.3054 18.5181 90.026 18.6422 89.7032 18.7416C89.3803 18.8533 89.0078 18.9092 88.5856 18.9092C87.9399 18.9092 87.3998 18.8223 86.9652 18.6484C86.5306 18.4622 86.1767 18.2076 85.9035 17.8848C85.6427 17.5619 85.4503 17.1894 85.3261 16.7672C85.2143 16.3326 85.1585 15.8608 85.1585 15.3516V9.00018H86.276V15.333C86.276 16.165 86.4685 16.8045 86.8534 17.2515C87.2384 17.6861 87.8716 17.9034 88.7533 17.9034C89.2127 17.9034 89.6225 17.8165 89.9826 17.6426C90.3551 17.4564 90.6655 17.2018 90.9139 16.879C91.1622 16.5561 91.3547 16.1712 91.4913 15.7242C91.6279 15.2771 91.6962 14.7867 91.6962 14.2527V9.00018ZM96.6817 18.6484H95.5641V9.00018H96.6817V10.8069H96.7189C97.0294 10.037 97.4267 9.50309 97.911 9.20507C98.4077 8.89464 99.0596 8.73942 99.8667 8.73942V9.95011C99.2334 9.93769 98.7119 10.037 98.3021 10.2481C97.8924 10.4592 97.5633 10.7448 97.315 11.1049C97.079 11.465 96.9114 11.8934 96.8121 12.3901C96.7251 12.8744 96.6817 13.3835 96.6817 13.9174V18.6484ZM109.161 13.8616C109.161 13.2779 109.087 12.7378 108.938 12.2411C108.801 11.732 108.596 11.2974 108.323 10.9373C108.05 10.5648 107.708 10.273 107.299 10.0619C106.889 9.85077 106.423 9.74522 105.902 9.74522C105.43 9.74522 104.995 9.83214 104.598 10.006C104.201 10.1674 103.853 10.4095 103.555 10.7324C103.257 11.0552 103.021 11.4526 102.847 11.9245C102.686 12.3839 102.605 12.9178 102.605 13.5263C102.58 14.1347 102.63 14.7059 102.754 15.2399C102.878 15.7614 103.077 16.2209 103.35 16.6182C103.623 17.0156 103.971 17.3322 104.393 17.5681C104.815 17.7916 105.318 17.9034 105.902 17.9034C106.411 17.9034 106.864 17.7979 107.261 17.5868C107.671 17.3632 108.013 17.0714 108.286 16.7113C108.571 16.3388 108.789 15.9104 108.938 15.4261C109.087 14.9295 109.161 14.4079 109.161 13.8616ZM109.161 9.00018H110.279V17.7171C110.279 18.3628 110.21 18.9775 110.074 19.5611C109.95 20.1571 109.72 20.6787 109.385 21.1257C109.049 21.5727 108.59 21.9266 108.006 22.1874C107.423 22.4606 106.672 22.5971 105.753 22.5971C105.045 22.5971 104.436 22.504 103.927 22.3178C103.418 22.1439 103.002 21.9204 102.679 21.6472C102.357 21.374 102.108 21.0698 101.934 20.7345C101.773 20.4117 101.686 20.1075 101.674 19.8219H102.866C102.953 20.182 103.089 20.4738 103.275 20.6973C103.462 20.9332 103.679 21.1133 103.927 21.2374C104.188 21.374 104.474 21.4672 104.784 21.5168C105.095 21.5665 105.417 21.5913 105.753 21.5913C106.51 21.5913 107.119 21.461 107.578 21.2002C108.037 20.9394 108.385 20.598 108.621 20.1758C108.857 19.7536 109.006 19.2755 109.068 18.7416C109.143 18.2076 109.174 17.6613 109.161 17.1025C108.801 17.6985 108.304 18.1517 107.671 18.4622C107.05 18.7602 106.398 18.9092 105.715 18.9092C104.983 18.9092 104.343 18.7726 103.797 18.4994C103.263 18.2138 102.816 17.8413 102.456 17.3819C102.108 16.91 101.847 16.3637 101.674 15.7428C101.5 15.1219 101.413 14.4762 101.413 13.8057C101.413 13.0979 101.494 12.4336 101.655 11.8127C101.816 11.1918 102.071 10.6579 102.419 10.2109C102.779 9.75143 103.232 9.39133 103.778 9.13057C104.325 8.8698 104.989 8.73942 105.771 8.73942C106.082 8.73942 106.398 8.78288 106.721 8.8698C107.044 8.95672 107.355 9.0809 107.653 9.24232C107.963 9.40375 108.242 9.60863 108.491 9.85698C108.751 10.1053 108.963 10.3847 109.124 10.6951H109.161V9.00018ZM98.8114 61.7871C98.8114 61.2407 98.7369 60.7254 98.5879 60.2411C98.4389 59.7444 98.2216 59.316 97.936 58.9559C97.6628 58.5834 97.3214 58.2916 96.9116 58.0805C96.5142 57.857 96.061 57.7452 95.5519 57.7452C94.9683 57.7452 94.4654 57.8632 94.0432 58.0991C93.621 58.3226 93.2733 58.6331 93.0001 59.0304C92.727 59.4278 92.5283 59.8934 92.4041 60.4274C92.2799 60.9489 92.2303 61.5139 92.2551 62.1223C92.2551 62.7308 92.3358 63.2709 92.4972 63.7428C92.6711 64.2022 92.907 64.5934 93.205 64.9162C93.503 65.2391 93.8507 65.4874 94.2481 65.6613C94.6454 65.8227 95.08 65.9034 95.5519 65.9034C96.0734 65.9034 96.5391 65.7979 96.9489 65.5868C97.3586 65.3757 97.7001 65.0901 97.9733 64.73C98.2465 64.3574 98.4513 63.9228 98.5879 63.4261C98.7369 62.917 98.8114 62.3707 98.8114 61.7871ZM98.8114 53.2377H99.929V66.6484H98.8114V64.9535H98.7742C98.6128 65.2763 98.4017 65.5619 98.1409 65.8103C97.8926 66.0462 97.6132 66.2449 97.3027 66.4063C97.0047 66.5677 96.6943 66.6919 96.3714 66.7788C96.0486 66.8657 95.732 66.9092 95.4215 66.9092C94.6392 66.9092 93.9749 66.7788 93.4285 66.5181C92.8822 66.2573 92.4289 65.9034 92.0688 65.4564C91.7212 64.9969 91.4666 64.4568 91.3052 63.8359C91.1438 63.2151 91.063 62.5507 91.063 61.8429C91.063 61.1724 91.15 60.5267 91.3238 59.9058C91.4976 59.285 91.7584 58.7448 92.1061 58.2854C92.4662 57.8135 92.9132 57.441 93.4472 57.1678C93.9935 56.8822 94.633 56.7394 95.3656 56.7394C96.0486 56.7394 96.7005 56.8946 97.3214 57.2051C97.9547 57.5031 98.4513 57.9501 98.8114 58.5461V53.2377ZM109.732 61.1538C109.732 60.6819 109.664 60.2411 109.527 59.8313C109.403 59.4091 109.211 59.049 108.95 58.751C108.702 58.4406 108.385 58.1985 108 58.0246C107.615 57.8384 107.174 57.7452 106.678 57.7452C106.181 57.7452 105.74 57.8384 105.355 58.0246C104.983 58.2109 104.66 58.4592 104.387 58.7697C104.126 59.0801 103.915 59.4402 103.753 59.85C103.592 60.2597 103.486 60.6943 103.437 61.1538H109.732ZM103.437 62.0851C103.437 62.6066 103.505 63.1033 103.642 63.5752C103.778 64.0346 103.977 64.4382 104.238 64.7858C104.511 65.1211 104.852 65.3943 105.262 65.6054C105.672 65.8041 106.144 65.9034 106.678 65.9034C107.41 65.9034 108.037 65.7109 108.559 65.326C109.08 64.9411 109.428 64.3947 109.602 63.6869H110.85C110.713 64.1463 110.533 64.5747 110.31 64.9721C110.086 65.357 109.807 65.6985 109.472 65.9965C109.136 66.2821 108.739 66.5056 108.28 66.6671C107.82 66.8285 107.286 66.9092 106.678 66.9092C105.908 66.9092 105.244 66.7788 104.685 66.5181C104.126 66.2573 103.667 65.9034 103.306 65.4564C102.946 64.9969 102.679 64.463 102.506 63.8545C102.332 63.2337 102.245 62.5693 102.245 61.8616C102.245 61.1538 102.344 60.4894 102.543 59.8686C102.754 59.2477 103.046 58.7076 103.418 58.2481C103.803 57.7763 104.269 57.41 104.815 57.1492C105.361 56.876 105.982 56.7394 106.678 56.7394C108.006 56.7394 109.049 57.1989 109.807 58.1177C110.564 59.0242 110.937 60.3467 110.924 62.0851H103.437ZM61.0009 110.644C61.0505 111.24 61.1809 111.749 61.392 112.171C61.6155 112.581 61.8949 112.916 62.2302 113.177C62.5779 113.438 62.9752 113.63 63.4222 113.754C63.8693 113.866 64.3473 113.922 64.8564 113.922C65.4525 113.922 65.9678 113.848 66.4024 113.699C66.837 113.55 67.1909 113.351 67.4641 113.102C67.7373 112.842 67.9359 112.544 68.0601 112.208C68.1967 111.873 68.265 111.519 68.265 111.147C68.265 110.625 68.147 110.203 67.9111 109.88C67.6752 109.557 67.3647 109.297 66.9798 109.098C66.6073 108.887 66.1727 108.719 65.676 108.595C65.1917 108.471 64.6888 108.353 64.1673 108.241C63.6582 108.117 63.1553 107.974 62.6586 107.813C62.1743 107.651 61.7397 107.434 61.3548 107.161C60.9822 106.888 60.678 106.54 60.4421 106.118C60.2062 105.683 60.0882 105.137 60.0882 104.479C60.0882 104.019 60.1813 103.572 60.3676 103.138C60.5663 102.703 60.8519 102.318 61.2244 101.983C61.6093 101.648 62.0874 101.381 62.6586 101.182C63.2298 100.983 63.8879 100.884 64.6329 100.884C65.3904 100.884 66.0485 100.989 66.6073 101.2C67.1785 101.412 67.6503 101.703 68.0229 102.076C68.3954 102.436 68.6748 102.858 68.861 103.342C69.0473 103.827 69.1404 104.342 69.1404 104.888H67.9297C67.9297 104.379 67.8366 103.939 67.6503 103.566C67.4765 103.193 67.2344 102.889 66.9239 102.653C66.6135 102.417 66.2596 102.244 65.8622 102.132C65.4649 102.02 65.0551 101.964 64.6329 101.964C63.9872 101.964 63.4409 102.057 62.9938 102.244C62.5592 102.417 62.2116 102.647 61.9508 102.933C61.69 103.218 61.51 103.535 61.4106 103.883C61.3113 104.23 61.2927 104.578 61.3548 104.926C61.4293 105.36 61.6031 105.708 61.8763 105.969C62.1495 106.229 62.4847 106.447 62.8821 106.621C63.2794 106.782 63.714 106.919 64.1859 107.03C64.6702 107.13 65.1607 107.242 65.6574 107.366C66.1541 107.477 66.6321 107.614 67.0916 107.775C67.5634 107.937 67.9794 108.154 68.3395 108.427C68.6996 108.701 68.9852 109.054 69.1963 109.489C69.4198 109.911 69.5316 110.445 69.5316 111.091C69.5316 112.333 69.1032 113.295 68.2464 113.978C67.3896 114.661 66.1851 115.002 64.6329 115.002C63.9376 115.002 63.2919 114.909 62.6958 114.723C62.0998 114.549 61.5845 114.282 61.1499 113.922C60.7153 113.55 60.3738 113.096 60.1254 112.562C59.8895 112.016 59.7716 111.376 59.7716 110.644H61.0009ZM71.6983 114.648V101.238H72.8158V106.341C73.2629 105.869 73.7223 105.484 74.1942 105.186C74.6784 104.888 75.2558 104.739 75.9264 104.739C76.5224 104.739 77.075 104.845 77.5841 105.056C78.0932 105.255 78.5216 105.609 78.8693 106.118C79.1052 106.465 79.2418 106.826 79.2791 107.198C79.3287 107.558 79.3536 107.937 79.3536 108.334V114.648H78.236V108.353C78.236 107.484 78.0435 106.832 77.6586 106.397C77.2737 105.963 76.6342 105.745 75.7401 105.745C75.3924 105.745 75.0758 105.801 74.7902 105.913C74.5046 106.012 74.2438 106.149 74.0079 106.323C73.7844 106.496 73.5919 106.695 73.4305 106.919C73.2691 107.142 73.1449 107.378 73.058 107.626C72.9462 107.937 72.8779 108.235 72.8531 108.52C72.8283 108.806 72.8158 109.117 72.8158 109.452V114.648H71.6983ZM85.885 114.909C85.2642 114.897 84.6805 114.785 84.1342 114.574C83.6002 114.363 83.1284 114.046 82.7186 113.624C82.3213 113.202 82.0046 112.674 81.7687 112.041C81.5328 111.408 81.4148 110.669 81.4148 109.824C81.4148 109.117 81.5079 108.458 81.6942 107.85C81.8804 107.229 82.1598 106.689 82.5323 106.229C82.9049 105.77 83.3705 105.41 83.9293 105.149C84.4881 104.876 85.14 104.739 85.885 104.739C86.6425 104.739 87.3006 104.876 87.8594 105.149C88.4182 105.41 88.8838 105.77 89.2563 106.229C89.6288 106.677 89.902 107.21 90.0759 107.831C90.2621 108.452 90.3553 109.117 90.3553 109.824C90.3553 110.594 90.2497 111.29 90.0386 111.91C89.8275 112.531 89.5233 113.065 89.1259 113.512C88.741 113.959 88.2691 114.307 87.7104 114.555C87.164 114.791 86.5556 114.909 85.885 114.909ZM89.1632 109.824C89.1632 109.253 89.1011 108.719 88.9769 108.222C88.8528 107.726 88.6603 107.297 88.3995 106.937C88.1388 106.565 87.8035 106.273 87.3937 106.062C86.984 105.851 86.4811 105.745 85.885 105.745C85.3014 105.745 84.7985 105.863 84.3763 106.099C83.9665 106.323 83.6313 106.627 83.3705 107.012C83.1098 107.384 82.9173 107.819 82.7931 108.316C82.6689 108.8 82.6068 109.303 82.6068 109.824C82.6068 110.42 82.6751 110.973 82.8117 111.482C82.9607 111.979 83.1718 112.407 83.445 112.767C83.7182 113.127 84.0597 113.407 84.4694 113.605C84.8792 113.804 85.3511 113.903 85.885 113.903C86.4686 113.903 86.9653 113.792 87.3751 113.568C87.7973 113.332 88.1388 113.022 88.3995 112.637C88.6603 112.252 88.8528 111.817 88.9769 111.333C89.1011 110.849 89.1632 110.346 89.1632 109.824ZM98.7121 109.582C98.2402 109.781 97.7621 109.911 97.2779 109.973C96.7936 110.035 96.3093 110.085 95.825 110.122C94.9682 110.184 94.2977 110.377 93.8134 110.7C93.3416 111.023 93.1056 111.513 93.1056 112.171C93.1056 112.469 93.1615 112.73 93.2733 112.953C93.3974 113.165 93.5527 113.345 93.7389 113.494C93.9376 113.63 94.1611 113.736 94.4095 113.81C94.6702 113.872 94.931 113.903 95.1917 113.903C95.6388 113.903 96.0734 113.848 96.4956 113.736C96.9178 113.624 97.2903 113.456 97.6131 113.233C97.9484 112.997 98.2154 112.705 98.414 112.357C98.6127 111.997 98.7121 111.575 98.7121 111.091V109.582ZM96.8308 109.023C97.0419 108.999 97.2903 108.961 97.5759 108.912C97.8739 108.862 98.116 108.794 98.3023 108.707C98.4885 108.62 98.6003 108.477 98.6375 108.278C98.6872 108.067 98.7121 107.875 98.7121 107.701C98.7121 107.13 98.5258 106.664 98.1533 106.304C97.7932 105.931 97.1785 105.745 96.3093 105.745C95.9244 105.745 95.5705 105.782 95.2476 105.857C94.9248 105.919 94.6392 106.037 94.3908 106.211C94.1549 106.372 93.9562 106.596 93.7948 106.881C93.6458 107.155 93.5464 107.502 93.4968 107.924H92.3606C92.3978 107.353 92.5282 106.869 92.7517 106.472C92.9753 106.062 93.2609 105.733 93.6085 105.484C93.9686 105.224 94.3784 105.037 94.8379 104.926C95.3097 104.802 95.8064 104.739 96.3279 104.739C96.8122 104.739 97.2654 104.795 97.6876 104.907C98.1222 105.006 98.4947 105.174 98.8052 105.41C99.128 105.633 99.3764 105.938 99.5502 106.323C99.7365 106.708 99.8296 107.179 99.8296 107.738V112.991C99.8296 113.425 99.9041 113.705 100.053 113.829C100.215 113.941 100.531 113.91 101.003 113.736V114.611C100.916 114.636 100.786 114.673 100.612 114.723C100.45 114.773 100.289 114.797 100.128 114.797C99.9538 114.797 99.7861 114.779 99.6247 114.742C99.4385 114.717 99.2895 114.661 99.1777 114.574C99.0659 114.475 98.9728 114.363 98.8983 114.239C98.8362 114.102 98.7928 113.959 98.7679 113.81C98.7431 113.649 98.7307 113.481 98.7307 113.307C98.2588 113.829 97.7187 114.226 97.1102 114.499C96.5018 114.773 95.8437 114.909 95.1359 114.909C94.7137 114.909 94.3039 114.853 93.9066 114.742C93.5216 114.63 93.1801 114.456 92.8821 114.22C92.5841 113.984 92.3482 113.699 92.1743 113.363C92.0005 113.016 91.9136 112.606 91.9136 112.134C91.9136 110.495 93.0373 109.526 95.2849 109.228L96.8308 109.023ZM102.748 114.648V101.238H103.865V106.341C104.312 105.869 104.772 105.484 105.244 105.186C105.728 104.888 106.305 104.739 106.976 104.739C107.572 104.739 108.124 104.845 108.633 105.056C109.143 105.255 109.571 105.609 109.919 106.118C110.155 106.465 110.291 106.826 110.328 107.198C110.378 107.558 110.403 107.937 110.403 108.334V114.648H109.285V108.353C109.285 107.484 109.093 106.832 108.708 106.397C108.323 105.963 107.684 105.745 106.789 105.745C106.442 105.745 106.125 105.801 105.84 105.913C105.554 106.012 105.293 106.149 105.057 106.323C104.834 106.496 104.641 106.695 104.48 106.919C104.318 107.142 104.194 107.378 104.107 107.626C103.996 107.937 103.927 108.235 103.902 108.52C103.878 108.806 103.865 109.117 103.865 109.452V114.648H102.748Z" fill="#91F5AD"/>
<path d="M99.2435 29.2428H103.272V42.6484H100.662V33.581C100.662 33.3203 100.665 32.9565 100.671 32.4896C100.677 32.0167 100.68 31.6529 100.68 31.3983L98.1431 42.6484H95.4237L92.9045 31.3983C92.9045 31.6529 92.9075 32.0167 92.9136 32.4896C92.9197 32.9565 92.9227 33.3203 92.9227 33.581V42.6484H90.3125V29.2428H94.3869L96.8243 39.7836L99.2435 29.2428ZM109.575 34.6087C108.975 34.6087 108.508 34.7967 108.175 35.1726C107.847 35.5485 107.641 36.0578 107.556 36.7005H111.585C111.543 36.0154 111.333 35.497 110.958 35.1453C110.588 34.7876 110.127 34.6087 109.575 34.6087ZM109.575 32.4715C110.4 32.4715 111.142 32.6261 111.803 32.9353C112.464 33.2445 113.01 33.7326 113.44 34.3995C113.828 34.9877 114.08 35.6698 114.195 36.4458C114.262 36.9006 114.289 37.5554 114.277 38.4103H107.492C107.529 39.4047 107.841 40.1019 108.429 40.5021C108.787 40.7507 109.217 40.875 109.721 40.875C110.254 40.875 110.688 40.7234 111.021 40.4202C111.203 40.2565 111.364 40.0292 111.503 39.7381H114.15C114.083 40.3263 113.777 40.9235 113.231 41.5298C112.382 42.4938 111.194 42.9758 109.666 42.9758C108.405 42.9758 107.292 42.5696 106.328 41.7572C105.364 40.9447 104.882 39.6229 104.882 37.7919C104.882 36.076 105.316 34.7603 106.183 33.8448C107.056 32.9292 108.187 32.4715 109.575 32.4715ZM112.858 28.679L110.094 31.3983H108.22L109.966 28.679H112.858ZM127.11 32.5169C127.546 32.5169 127.977 32.6018 128.401 32.7716C128.826 32.9413 129.211 33.2384 129.556 33.6629C129.835 34.0085 130.023 34.4329 130.12 34.9361C130.181 35.2696 130.211 35.7577 130.211 36.4004L130.193 42.6484H127.537V36.3367C127.537 35.9608 127.477 35.6516 127.355 35.409C127.125 34.9482 126.7 34.7178 126.082 34.7178C125.367 34.7178 124.872 35.0149 124.6 35.6091C124.46 35.9244 124.39 36.3034 124.39 36.746V42.6484H121.78V36.746C121.78 36.1578 121.72 35.7304 121.598 35.4636C121.38 34.9846 120.953 34.7451 120.316 34.7451C119.576 34.7451 119.079 34.9846 118.824 35.4636C118.685 35.7365 118.615 36.1427 118.615 36.6823V42.6484H115.987V32.7534H118.506V34.1994C118.827 33.6841 119.131 33.3173 119.416 33.099C119.919 32.7109 120.571 32.5169 121.371 32.5169C122.129 32.5169 122.741 32.6837 123.208 33.0171C123.584 33.3264 123.869 33.7235 124.063 34.2085C124.403 33.6265 124.824 33.199 125.327 32.9262C125.861 32.6533 126.455 32.5169 127.11 32.5169ZM137.05 40.8204C137.808 40.8204 138.39 40.5506 138.796 40.011C139.203 39.4714 139.406 38.7044 139.406 37.71C139.406 36.7157 139.203 35.9517 138.796 35.4181C138.39 34.8785 137.808 34.6087 137.05 34.6087C136.292 34.6087 135.707 34.8785 135.295 35.4181C134.889 35.9517 134.686 36.7157 134.686 37.71C134.686 38.7044 134.889 39.4714 135.295 40.011C135.707 40.5506 136.292 40.8204 137.05 40.8204ZM142.125 37.71C142.125 39.1652 141.707 40.4111 140.87 41.4479C140.033 42.4787 138.763 42.994 137.059 42.994C135.356 42.994 134.085 42.4787 133.249 41.4479C132.412 40.4111 131.994 39.1652 131.994 37.71C131.994 36.2791 132.412 35.0392 133.249 33.9903C134.085 32.9413 135.356 32.4169 137.059 32.4169C138.763 32.4169 140.033 32.9413 140.87 33.9903C141.707 35.0392 142.125 36.2791 142.125 37.71ZM149.374 32.4987C149.422 32.4987 149.461 32.5018 149.492 32.5078C149.528 32.5078 149.604 32.5109 149.719 32.5169V35.1726C149.555 35.1544 149.41 35.1423 149.283 35.1362C149.155 35.1301 149.052 35.1271 148.973 35.1271C147.931 35.1271 147.23 35.4666 146.873 36.1457C146.672 36.5277 146.572 37.1158 146.572 37.9101V42.6484H143.962V32.7352H146.436V34.4632C146.836 33.8023 147.185 33.3506 147.482 33.1081C147.967 32.7019 148.597 32.4987 149.374 32.4987ZM153.912 31.5529H151.283V29.161H153.912V31.5529ZM151.283 32.7352H153.912V42.6484H151.283V32.7352ZM161.897 37.8282C161.733 37.9313 161.567 38.0162 161.397 38.0829C161.233 38.1435 161.006 38.2011 160.715 38.2557L160.133 38.3648C159.587 38.4618 159.196 38.5801 158.959 38.7195C158.559 38.956 158.359 39.3228 158.359 39.82C158.359 40.2626 158.48 40.5839 158.723 40.784C158.972 40.978 159.272 41.0751 159.623 41.0751C160.181 41.0751 160.693 40.9113 161.16 40.5839C161.633 40.2565 161.879 39.6593 161.897 38.7923V37.8282ZM160.324 36.6186C160.803 36.558 161.145 36.4822 161.351 36.3913C161.721 36.2336 161.906 35.9881 161.906 35.6546C161.906 35.2484 161.764 34.9695 161.479 34.8179C161.2 34.6602 160.787 34.5814 160.242 34.5814C159.629 34.5814 159.196 34.733 158.941 35.0362C158.759 35.2605 158.638 35.5637 158.577 35.9456H156.076C156.131 35.0786 156.373 34.3662 156.804 33.8084C157.489 32.9353 158.665 32.4987 160.333 32.4987C161.418 32.4987 162.382 32.714 163.225 33.1445C164.068 33.5749 164.489 34.3874 164.489 35.5818V40.1292C164.489 40.4445 164.495 40.8265 164.507 41.2751C164.525 41.6147 164.577 41.8451 164.662 41.9663C164.747 42.0876 164.874 42.1876 165.044 42.2665V42.6484H162.224C162.146 42.4484 162.091 42.2604 162.061 42.0846C162.03 41.9087 162.006 41.7087 161.988 41.4843C161.63 41.8724 161.218 42.2028 160.751 42.4756C160.193 42.797 159.563 42.9577 158.859 42.9577C157.962 42.9577 157.219 42.703 156.631 42.1937C156.049 41.6783 155.758 40.9508 155.758 40.011C155.758 38.7923 156.228 37.9101 157.168 37.3644C157.683 37.0673 158.441 36.8551 159.441 36.7278L160.324 36.6186ZM169.446 42.6484H166.854V29.2428H169.446V42.6484ZM92.7954 90.6484H90.2034V77.2428H92.7954V90.6484ZM100.799 85.8282C100.635 85.9313 100.468 86.0162 100.299 86.0829C100.135 86.1435 99.9074 86.2011 99.6164 86.2557L99.0343 86.3648C98.4887 86.4618 98.0976 86.5801 97.8611 86.7195C97.461 86.956 97.2609 87.3228 97.2609 87.82C97.2609 88.2626 97.3821 88.5839 97.6247 88.784C97.8732 88.978 98.1734 89.0751 98.525 89.0751C99.0828 89.0751 99.5952 88.9113 100.062 88.5839C100.535 88.2565 100.781 87.6593 100.799 86.7923V85.8282ZM99.2253 84.6186C99.7043 84.558 100.047 84.4822 100.253 84.3913C100.623 84.2336 100.808 83.9881 100.808 83.6546C100.808 83.2484 100.665 82.9695 100.38 82.8179C100.101 82.6602 99.6892 82.5814 99.1435 82.5814C98.5311 82.5814 98.0976 82.733 97.8429 83.0362C97.661 83.2605 97.5398 83.5637 97.4791 83.9456H94.9781C95.0327 83.0786 95.2752 82.3662 95.7057 81.8084C96.3908 80.9353 97.5671 80.4987 99.2344 80.4987C100.32 80.4987 101.284 80.714 102.127 81.1445C102.969 81.5749 103.391 82.3874 103.391 83.5818V88.1292C103.391 88.4445 103.397 88.8265 103.409 89.2751C103.427 89.6147 103.479 89.8451 103.564 89.9663C103.648 90.0876 103.776 90.1876 103.945 90.2665V90.6484H101.126C101.047 90.4484 100.993 90.2604 100.962 90.0846C100.932 89.9087 100.908 89.7087 100.89 89.4843C100.532 89.8724 100.12 90.2028 99.6528 90.4756C99.095 90.797 98.4644 90.9577 97.7611 90.9577C96.8637 90.9577 96.121 90.703 95.5329 90.1937C94.9508 89.6783 94.6598 88.9508 94.6598 88.011C94.6598 86.7923 95.1297 85.9101 96.0695 85.3644C96.5848 85.0673 97.3427 84.8551 98.3431 84.7278L99.2253 84.6186Z" fill="#91F5AD"/>
</svg>
